<svg width="17" height="18" viewBox="0 0 17 18" xmlns="http://www.w3.org/2000/svg">
  <g id="Page-1" fill="none" fill-rule="evenodd">
    <g id="Artboard-Copy" transform="translate(-10 -9)" fill="#FF33AE">
      <path d="M14.051 25l1.016-1.016-2.623-2.622-1.015 1.015v1.194h1.428V25h1.194zm5.837-10.357c0-.145-.1-.246-.245-.246a.261.261 0 0 0-.19.078l-6.049 6.05a.261.261 0 0 0-.078.19c0 .144.1.245.245.245a.261.261 0 0 0 .19-.078l6.05-6.05a.261.261 0 0 0 .077-.19zm-.602-2.143l4.643 4.643-9.286 9.286H10v-4.643l9.286-9.286zm7.623 1.071c0 .38-.157.748-.413 1.005l-1.853 1.853L20 11.786l1.853-1.842a1.4 1.4 0 0 1 1.004-.424c.38 0 .748.156 1.016.424l2.623 2.612c.256.268.413.636.413 1.015z" id="pencil"/>
    </g>
  </g>
</svg>