<svg width="16" height="18" viewBox="0 0 16 18" xmlns="http://www.w3.org/2000/svg">
  <g id="Page-1" fill="none" fill-rule="evenodd">
    <g id="Artboard" transform="translate(-11 -9)" fill="#FF33AE">
    <path d="M16.714 16.071V22.5c0 .2-.156.357-.357.357h-.714a.353.353 0 0 1-.357-.357v-6.429c0-.2.156-.357.357-.357h.714c.201 0 .357.157.357.357zm2.857 0V22.5c0 .2-.156.357-.357.357H18.5a.353.353 0 0 1-.357-.357v-6.429c0-.2.156-.357.357-.357h.714c.201 0 .357.157.357.357zm2.858 0V22.5c0 .2-.157.357-.358.357h-.714A.353.353 0 0 1 21 22.5v-6.429c0-.2.156-.357.357-.357h.714c.201 0 .358.157.358.357zm1.428 8.08v-10.58h-10v10.58c0 .536.301.849.357.849H23.5c.056 0 .357-.313.357-.848zm-7.5-12.008h5l-.536-1.306a.43.43 0 0 0-.19-.123h-3.537a.376.376 0 0 0-.19.123l-.547 1.306zm10.357.357v.714c0 .201-.156.357-.357.357h-1.071v10.58c0 1.228-.804 2.278-1.786 2.278h-9.286c-.982 0-1.785-1.005-1.785-2.233V13.571h-1.072a.353.353 0 0 1-.357-.357V12.5c0-.2.156-.357.357-.357h3.449l.781-1.864c.223-.547.893-.993 1.484-.993h3.572c.591 0 1.261.446 1.484.993l.781 1.864h3.45c.2 0 .356.156.356.357z" id="trash"/>
    </g>
  </g>
</svg>